<svg id="Layer_1" data-name="Layer 1" xmlns="http://www.w3.org/2000/svg" viewBox="0 0 344.65 737.31"><defs><style>.cls-1{font-size:95px;font-family:FreightBigProLight-Italic, FreightBig Pro;font-style:italic;}.cls-2{letter-spacing:0.07em;}.cls-3{letter-spacing:0.06em;}.cls-4{letter-spacing:0.07em;}.cls-5{letter-spacing:0.05em;}.cls-6{letter-spacing:0.05em;}</style></defs><title>Small Treasures SVG</title><path d="M58.22,334.72c-.95-26.17-.41-52.38.83-78.54s3-52.11,5-78.13c1.81-23.44,5-46.68,12.84-68.93A207.28,207.28,0,0,1,105.66,55.2a202.74,202.74,0,0,1,43.22-43q3.1-2.27,6.29-4.41c2.66-1.79.16-6.12-2.52-4.32A208.06,208.06,0,0,0,106.9,45.48,214,214,0,0,0,75.3,99.17c-8.77,21.59-13.1,44.27-15.32,67.4-1.24,13-2,26-2.9,38.93-.9,13.29-1.77,26.58-2.49,39.89-1.42,26.48-2.27,53-1.66,79.52.08,3.27.17,6.54.29,9.81s5.12,3.23,5,0Z"/><path d="M147.52,334.72c-.77-21.22-.34-42.47.67-63.68s2.39-42.26,4-63.35c1.46-19,4-37.77,10.39-55.78a167.73,167.73,0,0,1,23.32-43.6,164,164,0,0,1,34.87-34.73c1.68-1.22,3.39-2.41,5.11-3.58,2.65-1.78.15-6.12-2.52-4.31a168.79,168.79,0,0,0-37.2,34.17,174.57,174.57,0,0,0-25.74,43.74c-7.13,17.55-10.64,36-12.44,54.78-1,10.5-1.64,21-2.35,31.56-.73,10.78-1.43,21.56-2,32.35-1.16,21.47-1.84,43-1.35,64.47q.1,4,.24,8c.12,3.21,5.12,3.23,5,0Z"/><path d="M235.65,334.72c-.62-16.93-.27-33.88.53-50.79s1.9-33.54,3.19-50.28c1.16-15.1,3.19-30,8.26-44.37a133.23,133.23,0,0,1,18.53-34.62,129.68,129.68,0,0,1,27.67-27.53q2-1.42,4-2.79c2.66-1.78.16-6.12-2.52-4.31a135,135,0,0,0-29.72,27.29,139.88,139.88,0,0,0-20.62,35c-5.67,14-8.47,28.62-9.91,43.57-1.64,16.88-2.57,33.88-3.49,50.82-.93,17.16-1.49,34.35-1.1,51.54q.08,3.24.2,6.47c.11,3.21,5.11,3.23,5,0Z"/><text class="cls-1" transform="translate(75.19 599.42)"><tspan class="cls-2">sma<tspan class="cls-3" x="149.53" y="0">l</tspan><tspan x="174.99" y="0">l</tspan></tspan><tspan class="cls-4" x="-71.63" y="114">t</tspan><tspan class="cls-5" x="-42.84" y="114">r</tspan><tspan class="cls-2" x="-4.47" y="114">easu</tspan><tspan class="cls-6" x="162.07" y="114">r</tspan><tspan class="cls-2" x="200.45" y="114">e</tspan><tspan x="238.16" y="114">s</tspan></text></svg>